<svg width="9495" height="13712" viewBox="0 0 9495 13712" fill="none" xmlns="http://www.w3.org/2000/svg">
<path d="M5980.87 5724.91L5580.73 4852.59L4781.34 4715.46L4781.29 4717.2L4781.35 4720.73L4783.1 4731.26L4786.61 4752.32L4791.88 4766.36L5363.92 5317.82L5942.98 5837.68L5980.87 5724.91Z" fill="#4D3885" fill-opacity="0.32"/>
<path d="M3560.93 5724.76L3961.08 4852.44L4760.46 4715.31L4760.51 4717.05L4760.46 4720.58L4758.7 4731.11L4755.19 4752.17L4749.93 4766.21L4177.88 5317.67L3598.82 5837.53L3560.93 5724.76Z" fill="#4D3885" fill-opacity="0.32"/>
<path fill-rule="evenodd" clip-rule="evenodd" d="M3958.12 4822.33L3077.04 4060.09C3078.17 4061.37 3079.3 4062.6 3080.42 4063.78C3077.46 4060.94 3074.51 4058.14 3071.57 4055.36L2903.96 3910.36L2903.98 3910.23C2862.57 3874.12 2836.48 3846.17 2836.48 3821.6C2836.48 3770.23 2890.63 3709.97 2936.51 3726.84C2938.43 3727.54 2940.31 3728.25 2942.15 3728.97L2942.15 3728.96L2942.23 3729C2954.4 3733.74 2964.87 3738.73 2973.97 3743.97L4737.31 4575.46L4758.95 4610.73L4764.04 4661.11L4760.53 4699.69L3958.12 4822.33ZM5583.72 4822.33L6464.81 4060.09C6463.67 4061.37 6462.55 4062.6 6461.43 4063.78C6464.39 4060.94 6467.34 4058.14 6470.28 4055.36L6637.89 3910.36L6637.86 3910.23C6679.28 3874.12 6705.36 3846.17 6705.36 3821.6C6705.36 3770.23 6651.22 3709.97 6605.33 3726.84C6603.42 3727.54 6601.54 3728.25 6599.7 3728.97L6599.7 3728.96L6599.61 3729C6587.45 3733.74 6576.97 3738.73 6567.88 3743.97L4804.54 4575.46L4782.9 4610.73L4777.8 4661.11L4781.31 4699.69L5583.72 4822.33Z" fill="#C6BFD8"/>
<path fill-rule="evenodd" clip-rule="evenodd" d="M4306.63 6536.95L2476.62 4676.19L1366.39 4454.74L1346.31 4479.08L1344.39 4517.49L1372.7 4545.55L1406.14 4570.83L4228.37 6615.77C4232.39 6619.14 4236.64 6622.22 4241.06 6624.96L4242.66 6626.12L4242.76 6626C4261.65 6637.28 4283.3 6642.52 4302.11 6638.8C4336.21 6632.04 4348.09 6598.37 4328.63 6563.6C4323.02 6553.57 4315.42 6544.55 4306.63 6536.95Z" fill="#5B419D"/>
<path fill-rule="evenodd" clip-rule="evenodd" d="M5232.36 6536.95L7062.37 4676.19L8172.6 4454.74L8192.69 4479.08L8194.6 4517.49L8166.29 4545.55L8132.85 4570.83L5310.62 6615.77C5306.6 6619.14 5302.35 6622.22 5297.94 6624.96L5296.34 6626.12L5296.23 6626C5277.34 6637.28 5255.7 6642.52 5236.89 6638.8C5202.78 6632.04 5190.91 6598.37 5210.37 6563.6C5215.97 6553.57 5223.57 6544.55 5232.36 6536.95Z" fill="#5B419D"/>
<path d="M1362.36 4443.69L1366.88 4436.94L1373.19 4429.02L4747.48 405.702L4474.65 1311.87L2478.5 4628.48L1362.36 4443.69Z" fill="#5B419D"/>
<path d="M8176.64 4443.69L8172.12 4436.94L8165.81 4429.02L4791.52 405.702L5064.35 1311.87L7060.5 4628.48L8176.64 4443.69Z" fill="#5B419D"/>
<path d="M3798.36 7150.21L4560.61 7994.31L4349.36 9676.16L3789.78 10423L3791.87 7173.13L3793.09 7160.39L3798.36 7150.21Z" fill="#513A8E"/>
<path d="M5774.82 7149.56L5012.58 7993.66L5223.83 9675.51L5783.41 10422.4L5781.32 7172.49L5780.09 7159.74L5774.82 7149.56Z" fill="#513A8E"/>
<path d="M2366.76 6642.44L2344.19 8851.76L2434.19 8872.66L2948.24 6015.29L2953.7 5980.9L2954.46 5947.3L2947.05 5931.64L2931.11 5922.44L2913.71 5922.44L2896.16 5928.13L2366.76 6642.44Z" fill="#5B419D"/>
<path d="M7206.39 6642.2L7228.96 8851.52L7138.95 8872.42L6624.9 6015.06L6619.45 5980.66L6618.68 5947.07L6626.1 5931.41L6642.04 5922.21L6659.44 5922.21L6676.99 5927.9L7206.39 6642.2Z" fill="#5B419D"/>
<path d="M1073.27 12603.9H1436.51C1430.53 12716 1399.88 12815 1344.58 12901C1290.02 12986.2 1214.16 13053.1 1116.99 13101.7C1019.83 13149.5 904.361 13173.4 770.577 13173.4C663.699 13173.4 568.032 13155.1 483.577 13118.5C399.121 13081.9 327.371 13029.5 268.327 12961.5C210.03 12892.8 165.186 12810.2 133.795 12713.8C103.152 12616.6 87.8306 12507.1 87.8306 12385.3V12285.5C87.8306 12163.7 103.9 12054.2 136.038 11957C168.176 11859.9 214.14 11776.9 273.932 11708.2C333.724 11639.4 405.474 11586.7 489.182 11550.1C572.89 11513.5 666.315 11495.1 769.456 11495.1C908.471 11495.1 1025.81 11520.2 1121.48 11570.3C1217.15 11620.3 1291.14 11689.1 1343.46 11776.5C1396.52 11864 1428.28 11963.8 1438.75 12075.9H1074.39C1071.4 12012.3 1059.45 11958.9 1038.52 11915.6C1017.59 11871.5 985.453 11838.2 942.104 11815.8C898.755 11793.4 841.206 11782.1 769.456 11782.1C717.138 11782.1 671.173 11791.9 631.561 11811.3C592.696 11830.7 560.185 11861 534.026 11902.1C508.614 11943.2 489.556 11995.5 476.85 12059.1C464.144 12121.8 457.792 12196.6 457.792 12283.3V12385.3C457.792 12471.2 463.397 12545.6 474.608 12608.4C485.819 12671.2 503.756 12723.1 528.42 12764.2C553.832 12805.3 586.344 12836 625.956 12856.2C665.568 12876.3 713.775 12886.4 770.577 12886.4C835.6 12886.4 889.786 12876.3 933.135 12856.2C976.484 12835.2 1009.74 12803.8 1032.91 12762C1056.08 12720.1 1069.53 12667.4 1073.27 12603.9ZM2179.93 11829.2L1758.39 13151H1368.25L1972.52 11518.7H2219.16L2179.93 11829.2ZM2529.71 13151L2107.05 11829.2L2063.33 11518.7H2313.34L2919.85 13151H2529.71ZM2511.77 12543.4V12825.9H1660.86V12543.4H2511.77ZM3764.17 12720.5C3764.17 12692.8 3760.06 12668.2 3751.83 12646.5C3743.61 12624.1 3728.66 12603.5 3706.99 12584.8C3685.32 12566.2 3654.67 12547.5 3615.06 12528.8C3575.45 12509.4 3523.5 12489.6 3459.23 12469.4C3385.98 12445.5 3316.1 12418.6 3249.58 12388.7C3183.81 12358 3125.14 12322.5 3073.57 12282.2C3022 12241.8 2981.27 12194.7 2951.37 12140.9C2922.22 12087.1 2907.65 12024.3 2907.65 11952.6C2907.65 11883 2922.97 11820.3 2953.62 11764.2C2984.26 11708.2 3027.23 11660.3 3082.54 11620.7C3137.85 11580.3 3202.87 11549.7 3277.61 11528.8C3352.35 11507.1 3434.56 11496.3 3524.25 11496.3C3643.84 11496.3 3748.84 11517.6 3839.28 11560.2C3930.46 11602 4001.46 11661.1 4052.29 11737.3C4103.11 11812.8 4128.52 11900.6 4128.52 12000.8H3765.29C3765.29 11956.7 3755.94 11917.8 3737.26 11884.2C3719.32 11849.8 3691.67 11822.9 3654.3 11803.4C3617.68 11784 3571.71 11774.3 3516.4 11774.3C3462.59 11774.3 3417.37 11782.5 3380.75 11799C3344.88 11814.7 3317.6 11836.3 3298.91 11864C3280.97 11891.6 3272.01 11921.9 3272.01 11954.8C3272.01 11981 3278.73 12004.9 3292.19 12026.5C3306.39 12047.5 3326.57 12067.3 3352.72 12086C3379.63 12103.9 3412.52 12121.1 3451.38 12137.5C3490.25 12154 3534.72 12169.7 3584.79 12184.6C3672.24 12212.3 3749.59 12242.9 3816.86 12276.5C3884.87 12310.2 3942.05 12348.3 3988.38 12390.9C4034.72 12433.5 4069.48 12481.7 4092.65 12535.5C4116.56 12589.3 4128.52 12650.2 4128.52 12718.3C4128.52 12790.8 4114.32 12855 4085.92 12911.1C4058.27 12967.1 4017.91 13015 3964.84 13054.6C3912.52 13093.5 3849.74 13123 3776.5 13143.2C3703.25 13163.3 3621.41 13173.4 3530.98 13173.4C3448.76 13173.4 3367.67 13163 3287.7 13142C3207.73 13120.4 3135.23 13087.5 3070.21 13043.4C3005.93 12999.3 2954.36 12943.2 2915.5 12875.2C2877.38 12806.5 2858.32 12725 2858.32 12630.8H3223.8C3223.8 12680.1 3230.9 12722 3245.1 12756.4C3259.3 12790 3279.48 12817.3 3305.64 12838.2C3332.54 12859.1 3365.06 12874.1 3403.17 12883.1C3441.29 12892 3483.89 12896.5 3530.98 12896.5C3585.54 12896.5 3629.63 12889 3663.27 12874.1C3697.65 12858.4 3723.06 12837.1 3739.5 12810.2C3755.94 12783.3 3764.17 12753.4 3764.17 12720.5ZM5144.37 12603.9H5507.6C5501.62 12716 5470.98 12815 5415.67 12901C5361.11 12986.2 5285.25 13053.1 5188.09 13101.7C5090.93 13149.5 4975.46 13173.4 4841.67 13173.4C4734.79 13173.4 4639.13 13155.1 4554.67 13118.5C4470.22 13081.9 4398.47 13029.5 4339.42 12961.5C4281.12 12892.8 4236.28 12810.2 4204.89 12713.8C4174.25 12616.6 4158.93 12507.1 4158.93 12385.3V12285.5C4158.93 12163.7 4174.99 12054.2 4207.13 11957C4239.27 11859.9 4285.24 11776.9 4345.03 11708.2C4404.82 11639.4 4476.57 11586.7 4560.28 11550.1C4643.99 11513.5 4737.41 11495.1 4840.55 11495.1C4979.57 11495.1 5096.91 11520.2 5192.57 11570.3C5288.24 11620.3 5362.23 11689.1 5414.55 11776.5C5467.62 11864 5499.38 11963.8 5509.84 12075.9H5145.49C5142.5 12012.3 5130.54 11958.9 5109.61 11915.6C5088.69 11871.5 5056.55 11838.2 5013.2 11815.8C4969.85 11793.4 4912.3 11782.1 4840.55 11782.1C4788.23 11782.1 4742.27 11791.9 4702.66 11811.3C4663.79 11830.7 4631.28 11861 4605.12 11902.1C4579.71 11943.2 4560.65 11995.5 4547.95 12059.1C4535.24 12121.8 4528.89 12196.6 4528.89 12283.3V12385.3C4528.89 12471.2 4534.49 12545.6 4545.7 12608.4C4556.91 12671.2 4574.85 12723.1 4599.52 12764.2C4624.93 12805.3 4657.44 12836 4697.05 12856.2C4736.66 12876.3 4784.87 12886.4 4841.67 12886.4C4906.7 12886.4 4960.88 12876.3 5004.23 12856.2C5047.58 12835.2 5080.84 12803.8 5104.01 12762C5127.18 12720.1 5140.63 12667.4 5144.37 12603.9ZM6251.02 11829.2L5829.49 13151H5439.35L6043.62 11518.7H6290.26L6251.02 11829.2ZM6600.8 13151L6178.15 11829.2L6134.43 11518.7H6384.43L6990.94 13151H6600.8ZM6582.86 12543.4V12825.9H5731.95V12543.4H6582.86ZM7505.66 13151H7146.91L7149.15 12868.5H7505.66C7587.13 12868.5 7655.89 12849.8 7711.94 12812.4C7768 12774.3 7810.6 12718.3 7839.75 12644.3C7868.89 12569.5 7883.47 12478.7 7883.47 12371.8V12296.7C7883.47 12216 7875.25 12145 7858.8 12083.7C7842.36 12021.7 7818.07 11969.7 7785.93 11927.9C7753.8 11886 7713.81 11854.6 7665.98 11833.7C7618.89 11812.8 7564.7 11802.3 7503.42 11802.3H7140.18V11518.7H7503.42C7614.03 11518.7 7714.93 11537.4 7806.11 11574.7C7898.04 11612.1 7977.27 11665.6 8043.78 11735.1C8111.05 11804.6 8162.99 11886.8 8199.62 11981.7C8236.24 12076.6 8254.55 12182.4 8254.55 12299V12371.8C8254.55 12487.7 8236.24 12593.4 8199.62 12689.1C8162.99 12784 8111.05 12866.2 8043.78 12935.8C7977.27 13004.5 7898.42 13057.6 7807.23 13094.9C7716.05 13132.3 7615.53 13151 7505.66 13151ZM7354.31 11518.7V13151H6988.84V11518.7H7354.31ZM9449.77 12868.5V13151H8580.92V12868.5H9449.77ZM8705.37 11518.7V13151H8339.89V11518.7H8705.37ZM9337.66 12175.6V12449.2H8580.92V12175.6H9337.66ZM9450.89 11518.7V11802.3H8580.92V11518.7H9450.89Z" fill="url(#paint0_linear_103_50)"/>
<defs>
<linearGradient id="paint0_linear_103_50" x1="4.87191e-05" y1="12367" x2="9495" y2="12367" gradientUnits="userSpaceOnUse">
<stop stop-color="#5D51A7"/>
<stop offset="1" stop-color="#7D74B9" stop-opacity="0.9"/>
</linearGradient>
</defs>
</svg>
