<svg width="47" height="66" viewBox="0 0 47 66" fill="none" xmlns="http://www.w3.org/2000/svg">
<path d="M31.0456 35.7594L28.5462 30.3107L23.5532 29.4542L23.5528 29.465L23.5532 29.4871L23.5641 29.5528L23.5861 29.6844L23.619 29.7721L27.192 33.2166L30.809 36.4637L31.0456 35.7594Z" fill="#4D3885" fill-opacity="0.32"/>
<path d="M15.93 35.7584L18.4293 30.3097L23.4224 29.4532L23.4227 29.464L23.4224 29.4861L23.4114 29.5519L23.3895 29.6834L23.3566 29.7711L19.7835 33.2156L16.1666 36.4628L15.93 35.7584Z" fill="#4D3885" fill-opacity="0.32"/>
<path fill-rule="evenodd" clip-rule="evenodd" d="M28.5647 30.1247L34.0592 25.3712L34.0462 25.3854L34.0774 25.3556L35.1492 24.4283L35.1487 24.4259C35.4071 24.2005 35.5698 24.026 35.5698 23.8727C35.5698 23.5518 35.2316 23.1754 34.945 23.2808C34.8467 23.3169 34.7652 23.3553 34.6965 23.3963L23.6978 28.5827L23.5626 28.803L23.5308 29.1177L23.5527 29.3586L28.5647 30.1247ZM18.4109 30.1236L12.9098 25.3646C12.9162 25.3717 12.9226 25.3787 12.9289 25.3854L12.88 25.3388L11.8264 24.4273L11.8266 24.4261C11.5681 24.2006 11.4053 24.0261 11.4053 23.8727C11.4053 23.5518 11.7435 23.1754 12.0301 23.2808C12.1231 23.315 12.2012 23.3513 12.2675 23.3897L23.2778 28.5816L23.413 28.8019L23.4448 29.1166L23.4229 29.3575L18.4109 30.1236Z" fill="#C6BFD8"/>
<path fill-rule="evenodd" clip-rule="evenodd" d="M20.5799 40.8291L9.15386 29.2111L2.21919 27.8279L2.09373 27.9799L2.08176 28.2198L2.2586 28.3951L2.46747 28.553L20.1027 41.3312C20.1233 41.348 20.1449 41.3636 20.1671 41.3779L20.1848 41.3907L20.1859 41.3895C20.3038 41.4598 20.4388 41.4924 20.5562 41.4692C20.7692 41.427 20.8434 41.2167 20.7218 40.9995C20.6858 40.9351 20.6367 40.8774 20.5799 40.8291Z" fill="#5B419D"/>
<path fill-rule="evenodd" clip-rule="evenodd" d="M26.3732 40.8291L37.7993 29.2111L44.7339 27.8279L44.8594 27.9799L44.8714 28.2198L44.6945 28.3951L44.4857 28.553L26.8505 41.3312C26.8298 41.348 26.8083 41.3636 26.786 41.3779L26.7683 41.3907L26.7673 41.3895C26.6493 41.4598 26.5143 41.4924 26.3969 41.4692C26.1839 41.427 26.1097 41.2167 26.2313 40.9995C26.2673 40.9351 26.3164 40.8774 26.3732 40.8291Z" fill="#5B419D"/>
<path d="M2.19629 27.7559L2.22453 27.7137L2.26395 27.6642L23.3403 2.53392L21.6362 8.19397L9.16791 28.9101L2.19629 27.7559Z" fill="#5B419D"/>
<path d="M44.7588 27.7559L44.7305 27.7137L44.6911 27.6642L23.6148 2.53392L25.3189 8.19397L37.7872 28.9101L44.7588 27.7559Z" fill="#5B419D"/>
<path d="M17.411 44.6606L22.1722 49.933L20.8527 60.4381L17.3574 65.103L17.3704 44.8038L17.3781 44.7242L17.411 44.6606Z" fill="#513A8E"/>
<path d="M29.7569 44.6567L24.9958 49.9291L26.3153 60.4342L29.8105 65.0991L29.7975 44.7999L29.7899 44.7203L29.7569 44.6567Z" fill="#513A8E"/>
<path d="M8.47035 41.4888L8.32942 55.2886L8.89158 55.4192L12.1024 37.5716L12.1365 37.3568L12.1413 37.1469L12.095 37.0491L11.9954 36.9916L11.8867 36.9916L11.7771 37.0272L8.47035 41.4888Z" fill="#5B419D"/>
<path d="M38.6976 41.4874L38.8386 55.2872L38.2764 55.4177L35.0656 37.5701L35.0315 37.3553L35.0267 37.1454L35.073 37.0476L35.1726 36.9902L35.2813 36.9902L35.3909 37.0257L38.6976 41.4874Z" fill="#5B419D"/>
</svg>
