<svg width="60" height="17" viewBox="0 0 60 17" fill="none" xmlns="http://www.w3.org/2000/svg">
<path d="M6.7036 9.58165H8.97316C8.9358 10.2821 8.74434 10.9009 8.39877 11.4379C8.05787 11.9703 7.58387 12.3882 6.97679 12.6918C6.36971 12.9907 5.64821 13.1401 4.8123 13.1401C4.14451 13.1401 3.54677 13.0257 3.01907 12.7969C2.49138 12.568 2.04307 12.2411 1.67415 11.8162C1.3099 11.3866 1.02971 10.8705 0.833572 10.2681C0.642108 9.66104 0.546375 8.9769 0.546375 8.21571V7.59229C0.546375 6.8311 0.646777 6.14696 0.847582 5.53988C1.04839 4.93279 1.33558 4.41444 1.70917 3.98481C2.08276 3.55518 2.53107 3.22596 3.0541 2.99713C3.57712 2.76831 4.16086 2.6539 4.8053 2.6539C5.6739 2.6539 6.40707 2.81034 7.00481 3.12322C7.60255 3.4361 8.06487 3.86573 8.39176 4.4121C8.72332 4.95848 8.92179 5.58191 8.98717 6.28239H6.71061C6.69193 5.88545 6.61721 5.55155 6.48645 5.2807C6.3557 5.00518 6.15489 4.79737 5.88404 4.65727C5.61319 4.51718 5.25361 4.44713 4.8053 4.44713C4.47841 4.44713 4.19121 4.50784 3.94371 4.62925C3.70087 4.75067 3.49774 4.9398 3.33429 5.19664C3.17551 5.45348 3.05643 5.78038 2.97704 6.17732C2.89766 6.56958 2.85796 7.03657 2.85796 7.57828V8.21571C2.85796 8.75275 2.89299 9.2174 2.96303 9.60967C3.03308 10.0019 3.14516 10.3265 3.29927 10.5833C3.45804 10.8402 3.66118 11.0316 3.90868 11.1577C4.15619 11.2838 4.45739 11.3469 4.8123 11.3469C5.21858 11.3469 5.55715 11.2838 5.828 11.1577C6.09885 11.027 6.30666 10.8308 6.45143 10.5693C6.5962 10.3078 6.68025 9.97859 6.7036 9.58165Z" fill="#4B3D9D" fill-opacity="0.9"/>
<path d="M6.7036 9.58165V9.56994H6.69256L6.69191 9.58097L6.7036 9.58165ZM8.97316 9.58165L8.98486 9.58228L8.98551 9.56994H8.97316V9.58165ZM8.39877 11.4379L8.38892 11.4316L8.38891 11.4316L8.39877 11.4379ZM6.97679 12.6918L6.98196 12.7023L6.98203 12.7023L6.97679 12.6918ZM1.67415 11.8162L1.66522 11.8238L1.66531 11.8239L1.67415 11.8162ZM0.833572 10.2681L0.822403 10.2716L0.822437 10.2717L0.833572 10.2681ZM8.39176 4.4121L8.38171 4.41812L8.38175 4.41818L8.39176 4.4121ZM8.98717 6.28239V6.2941H9.00003L8.99883 6.2813L8.98717 6.28239ZM6.71061 6.28239L6.69891 6.28294L6.69944 6.2941H6.71061V6.28239ZM6.48645 5.2807L6.47587 5.28572L6.47591 5.28579L6.48645 5.2807ZM3.94371 4.62925L3.93855 4.61874L3.93847 4.61878L3.94371 4.62925ZM3.33429 5.19664L3.32441 5.19035L3.32433 5.19048L3.33429 5.19664ZM2.97704 6.17732L2.98852 6.17964L2.98853 6.17961L2.97704 6.17732ZM3.29927 10.5833L3.28922 10.5894L3.2893 10.5895L3.29927 10.5833ZM5.828 11.1577L5.83294 11.1684L5.83309 11.1683L5.828 11.1577ZM6.7036 9.59336H8.97316V9.56994H6.7036V9.59336ZM8.96147 9.58103C8.92421 10.2797 8.73328 10.8964 8.38892 11.4316L8.40862 11.4443C8.75539 10.9054 8.9474 10.2846 8.98486 9.58228L8.96147 9.58103ZM8.38891 11.4316C8.04923 11.9621 7.57689 12.3786 6.97155 12.6813L6.98203 12.7023C7.59086 12.3978 8.06651 11.9785 8.40863 11.4442L8.38891 11.4316ZM6.97162 12.6813C6.36648 12.9792 5.64683 13.1284 4.8123 13.1284V13.1518C5.64959 13.1518 6.37294 13.0021 6.98196 12.7023L6.97162 12.6813ZM4.8123 13.1284C4.14586 13.1284 3.54974 13.0142 3.02373 12.7861L3.01441 12.8076C3.5438 13.0372 4.14317 13.1518 4.8123 13.1518V13.1284ZM3.02373 12.7861C2.49761 12.558 2.05074 12.2321 1.68299 11.8085L1.66531 11.8239C2.0354 12.2502 2.48515 12.5781 3.01441 12.8076L3.02373 12.7861ZM1.68308 11.8086C1.31993 11.3803 1.04043 10.8656 0.844708 10.2645L0.822437 10.2717C1.01898 10.8754 1.29987 11.3928 1.66522 11.8238L1.68308 11.8086ZM0.844741 10.2646C0.653698 9.65886 0.558086 8.97594 0.558086 8.21571H0.534664C0.534664 8.97787 0.630517 9.66323 0.822404 10.2716L0.844741 10.2646ZM0.558086 8.21571V7.59229H0.534664V8.21571H0.558086ZM0.558086 7.59229C0.558086 6.83212 0.658355 6.14925 0.8587 5.54355L0.836464 5.5362C0.6352 6.14467 0.534664 6.83008 0.534664 7.59229H0.558086ZM0.8587 5.54355C1.05908 4.93776 1.34556 4.42081 1.71801 3.99249L1.70034 3.97713C1.32561 4.40806 1.0377 4.92782 0.836464 5.5362L0.8587 5.54355ZM1.71801 3.99249C2.09046 3.56418 2.53735 3.23599 3.05879 3.00786L3.0494 2.9864C2.52479 3.21592 2.07507 3.54618 1.70034 3.97713L1.71801 3.99249ZM3.05879 3.00786C3.58016 2.77976 4.16226 2.66561 4.8053 2.66561V2.64218C4.15945 2.64218 3.57409 2.75685 3.0494 2.9864L3.05879 3.00786ZM4.8053 2.66561C5.67253 2.66561 6.40372 2.8218 6.99938 3.13359L7.01024 3.11284C6.41041 2.79887 5.67526 2.64218 4.8053 2.64218V2.66561ZM6.99938 3.13359C7.59533 3.44554 8.056 3.8737 8.38171 4.41812L8.40181 4.40609C8.07375 3.85775 7.60978 3.42666 7.01024 3.11284L6.99938 3.13359ZM8.38175 4.41818C8.7123 4.96289 8.91028 5.58458 8.97551 6.28348L8.99883 6.2813C8.9333 5.57923 8.73434 4.95407 8.40177 4.40603L8.38175 4.41818ZM8.98717 6.27068H6.71061V6.2941H8.98717V6.27068ZM6.72231 6.28184C6.70357 5.8838 6.62862 5.54826 6.497 5.27561L6.47591 5.28579C6.6058 5.55485 6.68028 5.88709 6.69891 6.28294L6.72231 6.28184ZM6.49703 5.27568C6.36518 4.99784 6.16255 4.78814 5.88942 4.64687L5.87866 4.66767C6.14724 4.80659 6.34622 5.01251 6.47587 5.28572L6.49703 5.27568ZM5.88942 4.64687C5.61631 4.5056 5.25467 4.43542 4.8053 4.43542V4.45884C5.25255 4.45884 5.61007 4.52875 5.87866 4.66767L5.88942 4.64687ZM4.8053 4.43542C4.47695 4.43542 4.18793 4.4964 3.93855 4.61874L3.94887 4.63977C4.19449 4.51927 4.47987 4.45884 4.8053 4.45884V4.43542ZM3.93847 4.61878C3.69352 4.74125 3.48885 4.93194 3.32441 5.19035L3.34417 5.20293C3.50662 4.94765 3.70823 4.76008 3.94895 4.63973L3.93847 4.61878ZM3.32433 5.19048C3.16462 5.44884 3.04513 5.77715 2.96556 6.17502L2.98853 6.17961C3.06773 5.7836 3.18641 5.45813 3.34425 5.2028L3.32433 5.19048ZM2.96557 6.17499C2.88598 6.56824 2.84625 7.03605 2.84625 7.57828H2.86967C2.86967 7.0371 2.90933 6.57093 2.98852 6.17964L2.96557 6.17499ZM2.84625 7.57828V8.21571H2.86967V7.57828H2.84625ZM2.84625 8.21571C2.84625 8.75322 2.8813 9.21859 2.95151 9.61173L2.97456 9.60761C2.90467 9.21621 2.86967 8.75228 2.86967 8.21571H2.84625ZM2.95151 9.61173C3.02173 10.005 3.13419 10.331 3.28922 10.5894L3.30931 10.5773C3.15613 10.322 3.04444 9.99892 2.97456 9.60761L2.95151 9.61173ZM3.2893 10.5895C3.44911 10.848 3.65379 11.041 3.90337 11.1682L3.914 11.1473C3.66857 11.0223 3.46698 10.8324 3.30923 10.5772L3.2893 10.5895ZM3.90337 11.1682C4.15291 11.2953 4.45604 11.3586 4.8123 11.3586V11.3352C4.45874 11.3352 4.15946 11.2723 3.914 11.1473L3.90337 11.1682ZM4.8123 11.3586C5.21971 11.3586 5.56009 11.2954 5.83294 11.1684L5.82306 11.1471C5.55421 11.2723 5.21746 11.3352 4.8123 11.3352V11.3586ZM5.83309 11.1683C6.10611 11.0365 6.31573 10.8386 6.46168 10.575L6.44118 10.5637C6.2976 10.823 6.0916 11.0175 5.82291 11.1472L5.83309 11.1683ZM6.46168 10.575C6.60752 10.3115 6.69187 9.98048 6.71529 9.58234L6.69191 9.58097C6.66863 9.97671 6.58487 10.3041 6.44118 10.5637L6.46168 10.575Z" fill="black"/>
<path d="M13.4134 4.74133L10.7796 13H8.34197L12.1176 2.801H13.6586L13.4134 4.74133ZM15.5989 13L12.9581 4.74133L12.6849 2.801H14.247L18.0366 13H15.5989ZM15.4869 9.20339V10.9686H10.1702V9.20339H15.4869Z" fill="#4C3E9E" fill-opacity="0.87"/>
<path d="M13.4134 4.74133L13.4248 4.74495L13.4251 4.7428L13.4134 4.74133ZM10.7796 13V13.0385L10.7908 13.0036L10.7796 13ZM8.34197 13L8.33098 12.9959L8.32514 13.0117H8.34197V13ZM12.1176 2.801V2.76726L12.1066 2.79693L12.1176 2.801ZM13.6586 2.801L13.6702 2.80246L13.6719 2.78929H13.6586V2.801ZM15.5989 13L15.5623 13.0117H15.5989V13ZM12.9581 4.74133L12.9464 4.74299L12.947 4.7449L12.9581 4.74133ZM12.6849 2.801V2.78929H12.6715L12.6734 2.80263L12.6849 2.801ZM14.247 2.801L14.2785 2.78929H14.247V2.801ZM18.0366 13V13.0117H18.0535L18.0476 12.9959L18.0366 13ZM15.4869 9.20339H15.4986V9.19168H15.4869V9.20339ZM15.4869 10.9686V10.9803H15.4986V10.9686H15.4869ZM10.1702 10.9686H10.1585V10.9803H10.1702V10.9686ZM10.1702 9.20339V9.19168H10.1585V9.20339H10.1702ZM13.4023 4.73777L10.7685 12.9964L10.7908 13.0036L13.4246 4.74489L13.4023 4.73777ZM10.7796 12.9883H8.34197V13.0117H10.7796V12.9883ZM8.35295 13.0041L12.1285 2.80506L12.1066 2.79693L8.33098 12.9959L8.35295 13.0041ZM12.1176 2.81271H13.6586V2.78929H12.1176V2.81271ZM13.647 2.79953L13.4018 4.73986L13.4251 4.7428L13.6702 2.80246L13.647 2.79953ZM15.6101 12.9964L12.9693 4.73776L12.947 4.7449L15.5878 13.0036L15.6101 12.9964ZM12.9697 4.7397L12.6965 2.79936L12.6734 2.80263L12.9465 4.74296L12.9697 4.7397ZM12.6849 2.81271H14.247V2.78929H12.6849V2.81271ZM14.236 2.80508L18.0256 13.0041L18.0476 12.9959L14.258 2.79692L14.236 2.80508ZM18.0366 12.9883H15.5989V13.0117H18.0366V12.9883ZM15.4752 9.20339V10.9686H15.4986V9.20339H15.4752ZM15.4869 10.9569H10.1702V10.9803H15.4869V10.9569ZM10.1819 10.9686V9.20339H10.1585V10.9686H10.1819ZM10.1702 9.2151H15.4869V9.19168H10.1702V9.2151Z" fill="black"/>
<path d="M23.1478 10.3102C23.1478 10.1374 23.1221 9.98326 23.0707 9.84784C23.0193 9.70774 22.9259 9.57932 22.7905 9.46257C22.6551 9.34582 22.4636 9.22908 22.2161 9.11233C21.9686 8.99091 21.6441 8.86716 21.2425 8.74108C20.7848 8.59164 20.3482 8.42352 19.9326 8.23673C19.5216 8.04526 19.155 7.82345 18.8328 7.57127C18.5106 7.3191 18.2561 7.0249 18.0693 6.68867C17.8872 6.35244 17.7961 5.96017 17.7961 5.51186C17.7961 5.07756 17.8918 4.68529 18.0833 4.33505C18.2748 3.98481 18.5433 3.68594 18.8888 3.43843C19.2344 3.18626 19.6407 2.9948 20.1077 2.86404C20.5747 2.72861 21.0883 2.6609 21.6487 2.6609C22.3959 2.6609 23.052 2.79399 23.6171 3.06017C24.1868 3.32169 24.6304 3.69061 24.948 4.16693C25.2656 4.63859 25.4243 5.1873 25.4243 5.81306H23.1548C23.1548 5.53754 23.0964 5.29471 22.9796 5.08456C22.8676 4.86975 22.6948 4.70164 22.4613 4.58022C22.2325 4.4588 21.9453 4.39809 21.5997 4.39809C21.2635 4.39809 20.9809 4.44946 20.7521 4.5522C20.528 4.65027 20.3575 4.78569 20.2408 4.95848C20.1287 5.13126 20.0727 5.32039 20.0727 5.52587C20.0727 5.68931 20.1147 5.83875 20.1987 5.97418C20.2875 6.10493 20.4136 6.22868 20.577 6.34543C20.7451 6.45751 20.9506 6.56491 21.1934 6.66765C21.4363 6.77039 21.7141 6.86846 22.027 6.96185C22.5734 7.13464 23.0567 7.3261 23.477 7.53625C23.9019 7.74639 24.2592 7.98456 24.5487 8.25074C24.8383 8.51692 25.0554 8.81813 25.2002 9.15436C25.3496 9.49059 25.4243 9.87118 25.4243 10.2961C25.4243 10.7491 25.3356 11.1507 25.1581 11.501C24.9854 11.8512 24.7332 12.1501 24.4016 12.3976C24.0747 12.6404 23.6825 12.8249 23.2248 12.951C22.7672 13.0771 22.2558 13.1401 21.6908 13.1401C21.1771 13.1401 20.6704 13.0747 20.1707 12.944C19.671 12.8085 19.2181 12.6031 18.8118 12.3275C18.4102 12.052 18.088 11.7018 17.8451 11.2768C17.607 10.8472 17.4879 10.3382 17.4879 9.74977H19.7714C19.7714 10.058 19.8158 10.3195 19.9045 10.5343C19.9933 10.7445 20.1194 10.9149 20.2828 11.0457C20.4509 11.1764 20.6541 11.2698 20.8922 11.3259C21.1304 11.3819 21.3966 11.4099 21.6908 11.4099C22.0317 11.4099 22.3072 11.3632 22.5173 11.2698C22.7321 11.1717 22.8909 11.0387 22.9937 10.8705C23.0964 10.7024 23.1478 10.5156 23.1478 10.3102Z" fill="#4C3E9E" fill-opacity="0.84"/>
<path d="M23.0707 9.84784L23.0597 9.85187L23.0598 9.85199L23.0707 9.84784ZM22.7905 9.46257L22.7982 9.4537L22.7905 9.46257ZM22.2161 9.11233L22.211 9.12285L22.2111 9.12292L22.2161 9.11233ZM21.2425 8.74108L21.2388 8.75221L21.2389 8.75225L21.2425 8.74108ZM19.9326 8.23673L19.9276 8.24734L19.9278 8.24741L19.9326 8.23673ZM18.0693 6.68867L18.059 6.69424L18.059 6.69435L18.0693 6.68867ZM18.0833 4.33505L18.073 4.32943L18.0833 4.33505ZM18.8888 3.43843L18.8957 3.44796L18.8957 3.44789L18.8888 3.43843ZM20.1077 2.86404L20.1108 2.87532L20.1109 2.87529L20.1077 2.86404ZM23.6171 3.06017L23.6121 3.07077L23.6122 3.07082L23.6171 3.06017ZM24.948 4.16693L24.9383 4.17343L24.9383 4.17347L24.948 4.16693ZM25.4243 5.81307V5.82478H25.436V5.81307H25.4243ZM23.1548 5.81307H23.1431V5.82478H23.1548V5.81307ZM22.9796 5.08456L22.9693 5.08998L22.9694 5.09025L22.9796 5.08456ZM22.4613 4.58022L22.4558 4.59056L22.4559 4.59061L22.4613 4.58022ZM20.7521 4.5522L20.7568 4.56293L20.7569 4.56288L20.7521 4.5522ZM20.2408 4.95848L20.2311 4.95192L20.2309 4.95211L20.2408 4.95848ZM20.1987 5.97418L20.1888 5.98036L20.189 5.98075L20.1987 5.97418ZM20.577 6.34543L20.5702 6.35496L20.5705 6.35517L20.577 6.34543ZM22.027 6.96185L22.0305 6.95069L22.0303 6.95063L22.027 6.96185ZM23.477 7.53625L23.4718 7.54672L23.4718 7.54675L23.477 7.53625ZM25.2002 9.15436L25.1894 9.15899L25.1895 9.15912L25.2002 9.15436ZM25.1581 11.501L25.1477 11.4957L25.1476 11.4958L25.1581 11.501ZM24.4016 12.3976L24.4086 12.407L24.4086 12.407L24.4016 12.3976ZM20.1707 12.944L20.1677 12.9553L20.1678 12.9553L20.1707 12.944ZM18.8118 12.3275L18.8052 12.3372L18.8052 12.3372L18.8118 12.3275ZM17.8451 11.2768L17.8349 11.2825L17.835 11.2826L17.8451 11.2768ZM17.4879 9.74977V9.73806H17.4762V9.74977H17.4879ZM19.7714 9.74977H19.7832V9.73806H19.7714V9.74977ZM19.9045 10.5343L19.8937 10.5388L19.8937 10.5389L19.9045 10.5343ZM20.2828 11.0457L20.2755 11.0548L20.2756 11.0549L20.2828 11.0457ZM22.5173 11.2698L22.5221 11.2805L22.5222 11.2805L22.5173 11.2698ZM23.1595 10.3102C23.1595 10.1362 23.1336 9.98066 23.0817 9.84368L23.0598 9.85199C23.1105 9.98586 23.1361 10.1385 23.1361 10.3102H23.1595ZM23.0817 9.8438C23.0295 9.7015 22.9348 9.57149 22.7982 9.4537L22.7829 9.47144C22.9171 9.58714 23.0092 9.71398 23.0597 9.85187L23.0817 9.8438ZM22.7982 9.4537C22.6616 9.336 22.4691 9.21873 22.2211 9.10174L22.2111 9.12292C22.4581 9.23943 22.6486 9.35565 22.7829 9.47144L22.7982 9.4537ZM22.2213 9.10182C21.973 8.98004 21.6479 8.85608 21.246 8.7299L21.2389 8.75225C21.6403 8.87824 21.9642 9.00179 22.211 9.12284L22.2213 9.10182ZM21.2461 8.72994C20.7888 8.58063 20.3526 8.41266 19.9374 8.22605L19.9278 8.24741C20.3438 8.43439 20.7808 8.60265 21.2388 8.75221L21.2461 8.72994ZM19.9375 8.22611C19.5273 8.03499 19.1615 7.81362 18.84 7.56205L18.8256 7.58049C19.1486 7.83327 19.5159 8.05554 19.9276 8.24734L19.9375 8.22611ZM18.84 7.56205C18.5189 7.31078 18.2655 7.01776 18.0795 6.68298L18.059 6.69435C18.2466 7.03204 18.5022 7.32742 18.8256 7.58049L18.84 7.56205ZM18.0796 6.68309C17.8985 6.34884 17.8078 5.95855 17.8078 5.51186H17.7844C17.7844 5.96178 17.8758 6.35603 18.059 6.69424L18.0796 6.68309ZM17.8078 5.51186C17.8078 5.07935 17.9031 4.68904 18.0936 4.34067L18.073 4.32943C17.8805 4.68154 17.7844 5.07577 17.7844 5.51186H17.8078ZM18.0936 4.34067C18.2841 3.99207 18.5514 3.6945 18.8957 3.44796L18.882 3.42891C18.5351 3.67737 18.2654 3.97755 18.073 4.32943L18.0936 4.34067ZM18.8957 3.44789C19.24 3.19665 19.645 3.00575 20.1108 2.87532L20.1045 2.85276C19.6364 2.98385 19.2288 3.17587 18.8819 3.42897L18.8957 3.44789ZM20.1109 2.87529C20.5767 2.74021 21.0893 2.67261 21.6487 2.67261V2.64919C21.0874 2.64919 20.5726 2.71702 20.1044 2.85279L20.1109 2.87529ZM21.6487 2.67261C22.3945 2.67261 23.0489 2.80545 23.6121 3.07077L23.6221 3.04958C23.0552 2.78253 22.3973 2.64919 21.6487 2.64919V2.67261ZM23.6122 3.07082C24.1801 3.33151 24.622 3.69908 24.9383 4.17343L24.9577 4.16044C24.6389 3.68214 24.1935 3.31186 23.622 3.04953L23.6122 3.07082ZM24.9383 4.17347C25.2544 4.64301 25.4126 5.18939 25.4126 5.81307H25.436C25.436 5.18522 25.2767 4.63418 24.9577 4.16039L24.9383 4.17347ZM25.4243 5.80135H23.1548V5.82478H25.4243V5.80135ZM23.1665 5.81307C23.1665 5.53585 23.1077 5.291 22.9899 5.07888L22.9694 5.09025C23.0851 5.29842 23.1431 5.53924 23.1431 5.81307H23.1665ZM22.99 5.07915C22.8767 4.86202 22.7021 4.69225 22.4667 4.56983L22.4559 4.59061C22.6874 4.71102 22.8584 4.87748 22.9693 5.08998L22.99 5.07915ZM22.4668 4.56987C22.2358 4.44731 21.9466 4.38638 21.5997 4.38638V4.4098C21.944 4.4098 22.2291 4.47029 22.4558 4.59056L22.4668 4.56987ZM21.5997 4.38638C21.2623 4.38638 20.9781 4.43791 20.7473 4.54152L20.7569 4.56288C20.9838 4.46101 21.2646 4.4098 21.5997 4.4098V4.38638ZM20.7474 4.54147C20.5216 4.64027 20.3493 4.777 20.2311 4.95192L20.2505 4.96503C20.3658 4.79438 20.5343 4.66026 20.7568 4.56293L20.7474 4.54147ZM20.2309 4.95211C20.1176 5.12678 20.0609 5.31813 20.0609 5.52587H20.0844C20.0844 5.32266 20.1397 5.13574 20.2506 4.96485L20.2309 4.95211ZM20.0609 5.52587C20.0609 5.69144 20.1035 5.84302 20.1888 5.98035L20.2087 5.968C20.1258 5.83448 20.0844 5.68719 20.0844 5.52587H20.0609ZM20.189 5.98075C20.2787 6.11292 20.4059 6.23762 20.5702 6.35496L20.5838 6.3359C20.4212 6.21975 20.2962 6.09694 20.2084 5.9676L20.189 5.98075ZM20.5705 6.35517C20.7394 6.46776 20.9455 6.5755 21.1889 6.67844L21.198 6.65687C20.9556 6.55433 20.7508 6.44726 20.5835 6.33569L20.5705 6.35517ZM21.1889 6.67844C21.4322 6.78138 21.7104 6.87958 22.0236 6.97308L22.0303 6.95063C21.7178 6.85733 21.4403 6.7594 21.198 6.65687L21.1889 6.67844ZM22.0235 6.97302C22.5694 7.14566 23.0521 7.33691 23.4718 7.54672L23.4822 7.52577C23.0613 7.3153 22.5774 7.12362 22.0305 6.95069L22.0235 6.97302ZM23.4718 7.54675C23.896 7.75649 24.2522 7.99406 24.5408 8.25936L24.5567 8.24212C24.2662 7.97505 23.9079 7.73629 23.4822 7.52575L23.4718 7.54675ZM24.5408 8.25936C24.8292 8.52451 25.0454 8.82438 25.1894 9.15899L25.2109 9.14973C25.0655 8.81187 24.8473 8.50933 24.5567 8.24212L24.5408 8.25936ZM25.1895 9.15912C25.3381 9.49363 25.4126 9.87257 25.4126 10.2961H25.436C25.436 9.8698 25.3611 9.48755 25.2109 9.1496L25.1895 9.15912ZM25.4126 10.2961C25.4126 10.7476 25.3242 11.1473 25.1477 11.4957L25.1686 11.5063C25.347 11.1541 25.436 10.7507 25.436 10.2961H25.4126ZM25.1476 11.4958C24.9757 11.8443 24.7248 12.1417 24.3946 12.3882L24.4086 12.407C24.7416 12.1584 24.995 11.8581 25.1686 11.5062L25.1476 11.4958ZM24.3946 12.3882C24.0691 12.63 23.6782 12.8139 23.2217 12.9397L23.2279 12.9623C23.6867 12.8358 24.0804 12.6508 24.4086 12.407L24.3946 12.3882ZM23.2217 12.9397C22.7652 13.0654 22.255 13.1284 21.6908 13.1284V13.1518C22.2567 13.1518 22.7691 13.0887 23.2279 12.9623L23.2217 12.9397ZM21.6908 13.1284C21.1781 13.1284 20.6724 13.0631 20.1737 12.9326L20.1678 12.9553C20.6684 13.0863 21.1761 13.1518 21.6908 13.1518V13.1284ZM20.1738 12.9327C19.6753 12.7976 19.2235 12.5926 18.8184 12.3178L18.8052 12.3372C19.2126 12.6135 19.6668 12.8195 20.1677 12.9553L20.1738 12.9327ZM18.8184 12.3179C18.4183 12.0434 18.0973 11.6944 17.8553 11.271L17.835 11.2826C18.0787 11.7091 18.4021 12.0607 18.8052 12.3372L18.8184 12.3179ZM17.8554 11.2711C17.6183 10.8436 17.4996 10.3366 17.4996 9.74977H17.4762C17.4762 10.3398 17.5956 10.8508 17.8349 11.2825L17.8554 11.2711ZM17.4879 9.76148H19.7714V9.73806H17.4879V9.76148ZM19.7597 9.74977C19.7597 10.059 19.8042 10.3222 19.8937 10.5388L19.9154 10.5298C19.8274 10.3168 19.7832 10.0569 19.7832 9.74977H19.7597ZM19.8937 10.5389C19.9832 10.7506 20.1104 10.9227 20.2755 11.0548L20.2901 11.0365C20.1283 10.9071 20.0034 10.7383 19.9153 10.5298L19.8937 10.5389ZM20.2756 11.0549C20.4452 11.1868 20.65 11.2809 20.8895 11.3372L20.8949 11.3145C20.6581 11.2587 20.4566 11.166 20.29 11.0364L20.2756 11.0549ZM20.8895 11.3372C21.1287 11.3935 21.3958 11.4216 21.6908 11.4216V11.3982C21.3973 11.3982 21.132 11.3702 20.8949 11.3145L20.8895 11.3372ZM21.6908 11.4216C22.0326 11.4216 22.3099 11.3748 22.5221 11.2805L22.5126 11.2591C22.3045 11.3516 22.0307 11.3982 21.6908 11.3982V11.4216ZM22.5222 11.2805C22.7387 11.1816 22.8995 11.0471 23.0037 10.8766L22.9837 10.8644C22.8824 11.0302 22.7256 11.1619 22.5125 11.2592L22.5222 11.2805ZM23.0037 10.8766C23.1076 10.7066 23.1595 10.5177 23.1595 10.3102H23.1361C23.1361 10.5136 23.0852 10.6982 22.9837 10.8644L23.0037 10.8766Z" fill="black"/>
<path d="M31.7095 9.58165H33.979C33.9417 10.2821 33.7502 10.9009 33.4046 11.4379C33.0637 11.9703 32.5897 12.3882 31.9827 12.6918C31.3756 12.9907 30.6541 13.1401 29.8182 13.1401C29.1504 13.1401 28.5526 13.0257 28.0249 12.7969C27.4972 12.568 27.0489 12.2411 26.68 11.8162C26.3158 11.3866 26.0356 10.8705 25.8394 10.2681C25.648 9.66104 25.5522 8.9769 25.5522 8.21571V7.59229C25.5522 6.8311 25.6526 6.14696 25.8534 5.53988C26.0542 4.93279 26.3414 4.41444 26.715 3.98481C27.0886 3.55518 27.5369 3.22596 28.06 2.99713C28.583 2.76831 29.1667 2.6539 29.8112 2.6539C30.6798 2.6539 31.4129 2.81034 32.0107 3.12322C32.6084 3.4361 33.0707 3.86573 33.3976 4.4121C33.7292 4.95848 33.9277 5.58191 33.993 6.28239H31.7165C31.6978 5.88545 31.6231 5.55155 31.4923 5.2807C31.3616 5.00518 31.1608 4.79737 30.8899 4.65727C30.619 4.51718 30.2595 4.44713 29.8112 4.44713C29.4843 4.44713 29.1971 4.50784 28.9496 4.62925C28.7067 4.75067 28.5036 4.9398 28.3401 5.19664C28.1814 5.45348 28.0623 5.78038 27.9829 6.17732C27.9035 6.56958 27.8638 7.03657 27.8638 7.57828V8.21571C27.8638 8.75275 27.8988 9.2174 27.9689 9.60967C28.0389 10.0019 28.151 10.3265 28.3051 10.5833C28.4639 10.8402 28.667 11.0316 28.9145 11.1577C29.162 11.2838 29.4633 11.3469 29.8182 11.3469C30.2244 11.3469 30.563 11.2838 30.8339 11.1577C31.1047 11.027 31.3125 10.8308 31.4573 10.5693C31.6021 10.3078 31.6861 9.97859 31.7095 9.58165Z" fill="#4C3E9E" fill-opacity="0.81"/>
<path d="M31.7095 9.58165V9.56994H31.6984L31.6978 9.58097L31.7095 9.58165ZM33.979 9.58165L33.9907 9.58228L33.9914 9.56994H33.979V9.58165ZM33.4046 11.4379L33.3948 11.4316L33.3948 11.4316L33.4046 11.4379ZM31.9827 12.6918L31.9878 12.7023L31.9879 12.7023L31.9827 12.6918ZM26.68 11.8162L26.6711 11.8238L26.6712 11.8239L26.68 11.8162ZM25.8394 10.2681L25.8283 10.2716L25.8283 10.2717L25.8394 10.2681ZM33.3976 4.4121L33.3876 4.41812L33.3876 4.41818L33.3976 4.4121ZM33.993 6.28239V6.2941H34.0059L34.0047 6.2813L33.993 6.28239ZM31.7165 6.28239L31.7048 6.28294L31.7053 6.2941H31.7165V6.28239ZM31.4923 5.2807L31.4817 5.28572L31.4818 5.28579L31.4923 5.2807ZM28.9496 4.62925L28.9444 4.61874L28.9443 4.61878L28.9496 4.62925ZM28.3401 5.19664L28.3303 5.19035L28.3302 5.19048L28.3401 5.19664ZM27.9829 6.17732L27.9944 6.17964L27.9944 6.17961L27.9829 6.17732ZM28.3051 10.5833L28.2951 10.5894L28.2952 10.5895L28.3051 10.5833ZM30.8339 11.1577L30.8388 11.1684L30.839 11.1683L30.8339 11.1577ZM31.7095 9.59336H33.979V9.56994H31.7095V9.59336ZM33.9673 9.58103C33.9301 10.2797 33.7391 10.8964 33.3948 11.4316L33.4145 11.4443C33.7613 10.9054 33.9533 10.2846 33.9907 9.58228L33.9673 9.58103ZM33.3948 11.4316C33.0551 11.9621 32.5828 12.3786 31.9774 12.6813L31.9879 12.7023C32.5967 12.3978 33.0724 11.9785 33.4145 11.4442L33.3948 11.4316ZM31.9775 12.6813C31.3723 12.9792 30.6527 13.1284 29.8182 13.1284V13.1518C30.6555 13.1518 31.3788 13.0021 31.9878 12.7023L31.9775 12.6813ZM29.8182 13.1284C29.1517 13.1284 28.5556 13.0142 28.0296 12.7861L28.0203 12.8076C28.5497 13.0372 29.149 13.1518 29.8182 13.1518V13.1284ZM28.0296 12.7861C27.5035 12.558 27.0566 12.2321 26.6889 11.8085L26.6712 11.8239C27.0413 12.2502 27.491 12.5781 28.0203 12.8076L28.0296 12.7861ZM26.6889 11.8086C26.3258 11.3803 26.0463 10.8656 25.8506 10.2645L25.8283 10.2717C26.0248 10.8754 26.3057 11.3928 26.6711 11.8238L26.6889 11.8086ZM25.8506 10.2646C25.6596 9.65886 25.5639 8.97594 25.5639 8.21571H25.5405C25.5405 8.97787 25.6364 9.66323 25.8283 10.2716L25.8506 10.2646ZM25.5639 8.21571V7.59229H25.5405V8.21571H25.5639ZM25.5639 7.59229C25.5639 6.83212 25.6642 6.14925 25.8646 5.54355L25.8423 5.5362C25.6411 6.14467 25.5405 6.83008 25.5405 7.59229H25.5639ZM25.8646 5.54355C26.0649 4.93776 26.3514 4.42081 26.7239 3.99249L26.7062 3.97713C26.3315 4.40806 26.0436 4.92782 25.8423 5.5362L25.8646 5.54355ZM26.7239 3.99249C27.0963 3.56418 27.5432 3.23599 28.0647 3.00786L28.0553 2.9864C27.5307 3.21592 27.0809 3.54618 26.7062 3.97713L26.7239 3.99249ZM28.0647 3.00786C28.586 2.77976 29.1681 2.66561 29.8112 2.66561V2.64218C29.1653 2.64218 28.5799 2.75685 28.0553 2.9864L28.0647 3.00786ZM29.8112 2.66561C30.6784 2.66561 31.4096 2.8218 32.0052 3.13359L32.0161 3.11284C31.4163 2.79887 30.6811 2.64218 29.8112 2.64218V2.66561ZM32.0052 3.13359C32.6012 3.44554 33.0619 3.8737 33.3876 4.41812L33.4077 4.40609C33.0796 3.85775 32.6156 3.42666 32.0161 3.11284L32.0052 3.13359ZM33.3876 4.41818C33.7182 4.96289 33.9161 5.58458 33.9814 6.28348L34.0047 6.2813C33.9392 5.57923 33.7402 4.95407 33.4076 4.40603L33.3876 4.41818ZM33.993 6.27068H31.7165V6.2941H33.993V6.27068ZM31.7282 6.28184C31.7094 5.8838 31.6345 5.54826 31.5029 5.27561L31.4818 5.28579C31.6117 5.55485 31.6861 5.88709 31.7048 6.28294L31.7282 6.28184ZM31.5029 5.27568C31.371 4.99784 31.1684 4.78814 30.8953 4.64687L30.8845 4.66767C31.1531 4.80659 31.3521 5.01251 31.4817 5.28572L31.5029 5.27568ZM30.8953 4.64687C30.6222 4.5056 30.2605 4.43542 29.8112 4.43542V4.45884C30.2584 4.45884 30.6159 4.52875 30.8845 4.66767L30.8953 4.64687ZM29.8112 4.43542C29.4828 4.43542 29.1938 4.4964 28.9444 4.61874L28.9547 4.63977C29.2004 4.51927 29.4857 4.45884 29.8112 4.45884V4.43542ZM28.9443 4.61878C28.6994 4.74125 28.4947 4.93194 28.3303 5.19035L28.35 5.20293C28.5125 4.94765 28.7141 4.76008 28.9548 4.63973L28.9443 4.61878ZM28.3302 5.19048C28.1705 5.44884 28.051 5.77715 27.9714 6.17502L27.9944 6.17961C28.0736 5.7836 28.1923 5.45813 28.3501 5.2028L28.3302 5.19048ZM27.9714 6.17499C27.8918 6.56824 27.8521 7.03605 27.8521 7.57828H27.8755C27.8755 7.0371 27.9152 6.57093 27.9944 6.17964L27.9714 6.17499ZM27.8521 7.57828V8.21571H27.8755V7.57828H27.8521ZM27.8521 8.21571C27.8521 8.75322 27.8872 9.21859 27.9574 9.61173L27.9804 9.60761C27.9105 9.21621 27.8755 8.75228 27.8755 8.21571H27.8521ZM27.9574 9.61173C28.0276 10.005 28.14 10.331 28.2951 10.5894L28.3152 10.5773C28.162 10.322 28.0503 9.99892 27.9804 9.60761L27.9574 9.61173ZM28.2952 10.5895C28.455 10.848 28.6596 11.041 28.9092 11.1682L28.9199 11.1473C28.6744 11.0223 28.4728 10.8324 28.3151 10.5772L28.2952 10.5895ZM28.9092 11.1682C29.1588 11.2953 29.4619 11.3586 29.8182 11.3586V11.3352C29.4646 11.3352 29.1653 11.2723 28.9199 11.1473L28.9092 11.1682ZM29.8182 11.3586C30.2256 11.3586 30.566 11.2954 30.8388 11.1684L30.8289 11.1471C30.5601 11.2723 30.2233 11.3352 29.8182 11.3352V11.3586ZM30.839 11.1683C31.112 11.0365 31.3216 10.8386 31.4675 10.575L31.447 10.5637C31.3035 10.823 31.0975 11.0175 30.8288 11.1472L30.839 11.1683ZM31.4675 10.575C31.6134 10.3115 31.6977 9.98048 31.7212 9.58234L31.6978 9.58097C31.6745 9.97671 31.5907 10.3041 31.447 10.5637L31.4675 10.575Z" fill="black"/>
<path d="M38.4203 4.74133L35.7865 13H33.3488L37.1244 2.801H38.6655L38.4203 4.74133ZM40.6058 13L37.965 4.74133L37.6918 2.801H39.2539L43.0435 13H40.6058ZM40.4937 9.20339V10.9686H35.1771V9.20339H40.4937Z" fill="#4C3E9E" fill-opacity="0.78"/>
<path d="M38.4203 4.74133L38.4316 4.74495L38.4319 4.7428L38.4203 4.74133ZM35.7865 13V13.0385L35.7976 13.0036L35.7865 13ZM33.3488 13L33.3378 12.9959L33.332 13.0117H33.3488V13ZM37.1244 2.801V2.76726L37.1134 2.79693L37.1244 2.801ZM38.6655 2.801L38.6771 2.80246L38.6787 2.78929H38.6655V2.801ZM40.6058 13L40.5692 13.0117H40.6058V13ZM37.965 4.74133L37.9532 4.74299L37.9538 4.7449L37.965 4.74133ZM37.6918 2.801V2.78929H37.6783L37.6802 2.80263L37.6918 2.801ZM39.2539 2.801L39.2854 2.78929H39.2539V2.801ZM43.0435 13V13.0117H43.0603L43.0544 12.9959L43.0435 13ZM40.4937 9.20339H40.5054V9.19168H40.4937V9.20339ZM40.4937 10.9686V10.9803H40.5054V10.9686H40.4937ZM35.1771 10.9686H35.1653V10.9803H35.1771V10.9686ZM35.1771 9.20339V9.19168H35.1653V9.20339H35.1771ZM38.4091 4.73777L35.7753 12.9964L35.7976 13.0036L38.4314 4.74489L38.4091 4.73777ZM35.7865 12.9883H33.3488V13.0117H35.7865V12.9883ZM33.3598 13.0041L37.1354 2.80506L37.1134 2.79693L33.3378 12.9959L33.3598 13.0041ZM37.1244 2.81271H38.6655V2.78929H37.1244V2.81271ZM38.6538 2.79953L38.4087 4.73986L38.4319 4.7428L38.6771 2.80246L38.6538 2.79953ZM40.6169 12.9964L37.9761 4.73776L37.9538 4.7449L40.5946 13.0036L40.6169 12.9964ZM37.9766 4.7397L37.7034 2.79936L37.6802 2.80263L37.9534 4.74296L37.9766 4.7397ZM37.6918 2.81271H39.2539V2.78929H37.6918V2.81271ZM39.2429 2.80508L43.0325 13.0041L43.0544 12.9959L39.2648 2.79692L39.2429 2.80508ZM43.0435 12.9883H40.6058V13.0117H43.0435V12.9883ZM40.482 9.20339V10.9686H40.5054V9.20339H40.482ZM40.4937 10.9569H35.1771V10.9803H40.4937V10.9569ZM35.1888 10.9686V9.20339H35.1653V10.9686H35.1888ZM35.1771 9.2151H40.4937V9.19168H35.1771V9.2151Z" fill="black"/>
<path d="M46.7885 13H44.547L44.561 11.2348H46.7885C47.2976 11.2348 47.7272 11.118 48.0774 10.8845C48.4277 10.6464 48.6939 10.2961 48.876 9.83383C49.0581 9.36684 49.1492 8.79945 49.1492 8.13166V7.66233C49.1492 7.15799 49.0978 6.71435 48.9951 6.33142C48.8923 5.94382 48.7406 5.61927 48.5397 5.35775C48.3389 5.09624 48.0891 4.9001 47.7902 4.76935C47.496 4.63859 47.1575 4.57321 46.7745 4.57321H44.505V2.801H46.7745C47.4657 2.801 48.0961 2.91774 48.6658 3.15124C49.2402 3.38473 49.7352 3.71863 50.1509 4.15292C50.5711 4.58722 50.8957 5.10091 51.1245 5.69398C51.3533 6.28706 51.4678 6.94784 51.4678 7.67634V8.13166C51.4678 8.85549 51.3533 9.51627 51.1245 10.114C50.8957 10.7071 50.5711 11.2208 50.1509 11.6551C49.7352 12.0847 49.2426 12.4163 48.6728 12.6498C48.1031 12.8833 47.475 13 46.7885 13ZM45.8429 2.801V13H43.5593V2.801H45.8429Z" fill="#4C3E9E" fill-opacity="0.75"/>
<path d="M44.547 13L44.5353 12.9999L44.5352 13.0117H44.547V13ZM44.561 11.2348V11.2231H44.5494L44.5493 11.2347L44.561 11.2348ZM48.0774 10.8845L48.0839 10.8943L48.084 10.8942L48.0774 10.8845ZM48.876 9.83383L48.8869 9.83812L48.8869 9.83808L48.876 9.83383ZM48.9951 6.33142L48.9837 6.33442L48.9837 6.33446L48.9951 6.33142ZM47.7902 4.76935L47.7855 4.78005L47.7855 4.78008L47.7902 4.76935ZM44.505 4.57321H44.4933V4.58492H44.505V4.57321ZM44.505 2.801V2.78929H44.4933V2.801H44.505ZM48.6658 3.15124L48.6614 3.16207L48.6614 3.16209L48.6658 3.15124ZM50.1509 4.15293L50.1424 4.16102L50.1424 4.16107L50.1509 4.15293ZM51.1245 5.69398L51.1136 5.6982L51.1245 5.69398ZM51.1245 10.114L51.1354 10.1182L51.1355 10.1182L51.1245 10.114ZM50.1509 11.6551L50.1424 11.6469L50.1424 11.6469L50.1509 11.6551ZM45.8429 2.801H45.8546V2.78929H45.8429V2.801ZM45.8429 13V13.0117H45.8546V13H45.8429ZM43.5593 13H43.5476V13.0117H43.5593V13ZM43.5593 2.801V2.78929H43.5476V2.801H43.5593ZM46.7885 12.9883H44.547V13.0117H46.7885V12.9883ZM44.5587 13.0001L44.5727 11.2349L44.5493 11.2347L44.5353 12.9999L44.5587 13.0001ZM44.561 11.2465H46.7885V11.2231H44.561V11.2465ZM46.7885 11.2465C47.2994 11.2465 47.7314 11.1293 48.0839 10.8943L48.0709 10.8748C47.723 11.1068 47.2957 11.2231 46.7885 11.2231V11.2465ZM48.084 10.8942C48.4365 10.6545 48.704 10.3022 48.8869 9.83812L48.8651 9.82953C48.6837 10.29 48.4188 10.6382 48.0708 10.8749L48.084 10.8942ZM48.8869 9.83808C49.0697 9.36937 49.1609 8.80045 49.1609 8.13166H49.1375C49.1375 8.79845 49.0465 9.36431 48.8651 9.82957L48.8869 9.83808ZM49.1609 8.13166V7.66233H49.1375V8.13166H49.1609ZM49.1609 7.66233C49.1609 7.15723 49.1094 6.71253 49.0064 6.32839L48.9837 6.33446C49.0862 6.71617 49.1375 7.15875 49.1375 7.66233H49.1609ZM49.0064 6.32842C48.9033 5.93964 48.751 5.6136 48.549 5.35062L48.5305 5.36488C48.7301 5.62493 48.8813 5.948 48.9837 6.33442L49.0064 6.32842ZM48.549 5.35062C48.347 5.08756 48.0956 4.89018 47.7949 4.75862L47.7855 4.78008C48.0826 4.91003 48.3308 5.10492 48.5305 5.36488L48.549 5.35062ZM47.795 4.75865C47.499 4.62711 47.1588 4.5615 46.7745 4.5615V4.58492C47.1561 4.58492 47.493 4.65007 47.7855 4.78005L47.795 4.75865ZM46.7745 4.5615H44.505V4.58492H46.7745V4.5615ZM44.5167 4.57321V2.801H44.4933V4.57321H44.5167ZM44.505 2.81271H46.7745V2.78929H44.505V2.81271ZM46.7745 2.81271C47.4643 2.81271 48.0932 2.92922 48.6614 3.16207L48.6703 3.1404C48.099 2.90626 47.467 2.78929 46.7745 2.78929V2.81271ZM48.6614 3.16209C49.2343 3.39498 49.728 3.72795 50.1424 4.16102L50.1593 4.14483C49.7425 3.7093 49.2461 3.37448 48.6702 3.14039L48.6614 3.16209ZM50.1424 4.16107C50.5616 4.59418 50.8853 5.10651 51.1136 5.6982L51.1354 5.68977C50.9061 5.09531 50.5807 4.58027 50.1593 4.14478L50.1424 4.16107ZM51.1136 5.6982C51.3418 6.28975 51.456 6.94908 51.456 7.67634H51.4795C51.4795 6.94661 51.3649 6.28437 51.1354 5.68977L51.1136 5.6982ZM51.456 7.67634V8.13166H51.4795V7.67634H51.456ZM51.456 8.13166C51.456 8.85424 51.3418 9.51359 51.1136 10.1098L51.1355 10.1182C51.3649 9.51896 51.4795 8.85673 51.4795 8.13166H51.456ZM51.1136 10.1098C50.8853 10.7015 50.5616 11.2138 50.1424 11.6469L50.1593 11.6632C50.5807 11.2277 50.9061 10.7127 51.1354 10.1182L51.1136 10.1098ZM50.1424 11.6469C49.728 12.0754 49.2367 12.406 48.6684 12.6389L48.6773 12.6606C49.2485 12.4265 49.7425 12.094 50.1593 11.6632L50.1424 11.6469ZM48.6684 12.6389C48.1002 12.8718 47.4737 12.9883 46.7885 12.9883V13.0117C47.4764 13.0117 48.106 12.8947 48.6773 12.6606L48.6684 12.6389ZM45.8312 2.801V13H45.8546V2.801H45.8312ZM45.8429 12.9883H43.5593V13.0117H45.8429V12.9883ZM43.571 13V2.801H43.5476V13H43.571ZM43.5593 2.81271H45.8429V2.78929H43.5593V2.81271Z" fill="black"/>
<path d="M58.83 11.2348V13H53.4013V11.2348H58.83ZM54.1788 2.801V13H51.8953V2.801H54.1788ZM58.1295 6.90582V8.61499H53.4013V6.90582H58.1295ZM58.837 2.801V4.57321H53.4013V2.801H58.837Z" fill="#4C3E9E" fill-opacity="0.72"/>
<path d="M58.83 11.2348H58.8417V11.2231H58.83V11.2348ZM58.83 13V13.0117H58.8417V13H58.83ZM53.4013 13H53.3896V13.0117H53.4013V13ZM53.4013 11.2348V11.2231H53.3896V11.2348H53.4013ZM54.1788 2.801H54.1905V2.78929H54.1788V2.801ZM54.1788 13V13.0117H54.1905V13H54.1788ZM51.8953 13H51.8836V13.0117H51.8953V13ZM51.8953 2.801V2.78929H51.8836V2.801H51.8953ZM58.1295 6.90582H58.1413V6.8941H58.1295V6.90582ZM58.1295 8.61499V8.6267H58.1413V8.61499H58.1295ZM53.4013 8.61499H53.3896V8.6267H53.4013V8.61499ZM53.4013 6.90582V6.8941H53.3896V6.90582H53.4013ZM58.837 2.801H58.8487V2.78929H58.837V2.801ZM58.837 4.57321V4.58492H58.8487V4.57321H58.837ZM53.4013 4.57321H53.3896V4.58492H53.4013V4.57321ZM53.4013 2.801V2.78929H53.3896V2.801H53.4013ZM58.8183 11.2348V13H58.8417V11.2348H58.8183ZM58.83 12.9883H53.4013V13.0117H58.83V12.9883ZM53.413 13V11.2348H53.3896V13H53.413ZM53.4013 11.2465H58.83V11.2231H53.4013V11.2465ZM54.1671 2.801V13H54.1905V2.801H54.1671ZM54.1788 12.9883H51.8953V13.0117H54.1788V12.9883ZM51.907 13V2.801H51.8836V13H51.907ZM51.8953 2.81271H54.1788V2.78929H51.8953V2.81271ZM58.1178 6.90582V8.61499H58.1413V6.90582H58.1178ZM58.1295 8.60328H53.4013V8.6267H58.1295V8.60328ZM53.413 8.61499V6.90582H53.3896V8.61499H53.413ZM53.4013 6.91753H58.1295V6.8941H53.4013V6.91753ZM58.8253 2.801V4.57321H58.8487V2.801H58.8253ZM58.837 4.5615H53.4013V4.58492H58.837V4.5615ZM53.413 4.57321V2.801H53.3896V4.57321H53.413ZM53.4013 2.81271H58.837V2.78929H53.4013V2.81271Z" fill="black"/>
</svg>
