<svg width="15" height="14" viewBox="0 0 15 14" fill="none" xmlns="http://www.w3.org/2000/svg">
<path d="M0.723607 12.5528C0.391156 13.2177 0.874652 14 1.61803 14H13.382C14.1253 14 14.6088 13.2177 14.2764 12.5528L8.39443 0.788854C8.0259 0.0518053 6.9741 0.0518059 6.60557 0.788854L0.723607 12.5528ZM8.18182 10.9498C8.18182 11.3263 7.87656 11.6316 7.5 11.6316C7.12344 11.6316 6.81818 11.3263 6.81818 10.9498V10.7344C6.81818 10.3579 7.12344 10.0526 7.5 10.0526C7.87656 10.0526 8.18182 10.3579 8.18182 10.7345V10.9498ZM8.18182 7.79187C8.18182 8.16842 7.87656 8.47368 7.5 8.47368C7.12344 8.47368 6.81818 8.16842 6.81818 7.79187V5.99761C6.81818 5.62105 7.12344 5.31579 7.5 5.31579C7.87656 5.31579 8.18182 5.62105 8.18182 5.99761V7.79187Z" fill="#FAC50A"/>
</svg>
