<svg width="30" height="20" viewBox="0 0 30 20" fill="none" xmlns="http://www.w3.org/2000/svg">
<path fill-rule="evenodd" clip-rule="evenodd" d="M27.7215 0.462559L14.4981 16.1532L9.8405 10.6424C9.59044 10.345 9.25096 10.1779 8.89693 10.1779C8.5429 10.1779 8.20342 10.345 7.95336 10.6424C7.43139 11.2618 7.43139 12.2623 7.95336 12.8817L13.5479 19.52C14.0698 20.1394 14.913 20.1394 15.435 19.52L29.6086 2.71769C30.1306 2.09832 30.1306 1.09781 29.6086 0.47844H29.5952C29.0866 -0.156808 28.2434 -0.156808 27.7215 0.462559ZM22.0468 0.478174C21.7967 0.180794 21.4572 0.0136719 21.1032 0.0136719C20.7492 0.0136719 20.4097 0.180794 20.1596 0.478174L12.6111 9.43517L14.4982 11.6744L22.0468 2.70154C22.5554 2.09806 22.5554 1.08166 22.0468 0.478174ZM5.98597 19.5354L0.391481 12.897C-0.130494 12.2777 -0.130494 11.2613 0.391481 10.6419C0.641535 10.3445 0.98102 10.1774 1.33505 10.1774C1.68908 10.1774 2.02856 10.3445 2.27862 10.6419L8.80999 18.4237L7.87311 19.5354C7.35114 20.1547 6.50795 20.1547 5.98597 19.5354Z" fill="#7B7B7B"/>
</svg>
