<svg width="15" height="15" viewBox="0 0 15 15" fill="none" xmlns="http://www.w3.org/2000/svg">
<path d="M15 7.5C15 11.65 11.65 15 7.5 15C3.35 15 0 11.65 0 7.5C0 3.35 3.35 0 7.5 0C11.65 0 15 3.35 15 7.5ZM6.5 3.55L6.95 8.25C7 8.45 7.05 8.85 7.45 8.85H7.6C8 8.85 8.1 8.45 8.15 8.2L8.5 3.6C8.55 3.25 8.5 3 8.35 2.8C8.2 2.6 7.95 2.5 7.7 2.5H7.35C7.05 2.5 6.85 2.6 6.7 2.75C6.5 2.95 6.45 3.25 6.5 3.55ZM8.55 11.35C8.55 10.75 8.2 10.4 7.6 10.4H7.4C6.8 10.4 6.45 10.75 6.45 11.35V11.5C6.45 12.1 6.8 12.45 7.4 12.45H7.6C8.2 12.45 8.55 12.1 8.55 11.5V11.35Z" fill="#EB5757"/>
</svg>
